<svg xmlns="http://www.w3.org/2000/svg" width="1536" height="1024" viewBox="0 0 1536 1024" role="img" aria-labelledby="title desc">
  <title id="title">FigForge call flow</title>
  <desc id="desc">A call-flow diagram showing how FigForge routes requests through planning, image generation, state tracking, and revision loops.</desc>
  <defs>
    <marker id="arrow" markerWidth="12" markerHeight="10" refX="10" refY="5" orient="auto" markerUnits="strokeWidth">
      <path d="M 0 0 L 10 5 L 0 10 z" fill="#34424d"/>
    </marker>
    <marker id="arrowBlue" markerWidth="12" markerHeight="10" refX="10" refY="5" orient="auto" markerUnits="strokeWidth">
      <path d="M 0 0 L 10 5 L 0 10 z" fill="#2f80c1"/>
    </marker>
    <marker id="arrowGray" markerWidth="12" markerHeight="10" refX="10" refY="5" orient="auto" markerUnits="strokeWidth">
      <path d="M 0 0 L 10 5 L 0 10 z" fill="#9aa6af"/>
    </marker>
    <style>
      .bg { fill: #f7fafc; }
      .panel { fill: #ffffff; stroke: #d6dde3; stroke-width: 1.4; }
      .node { fill: #ffffff; stroke: #9fb0be; stroke-width: 1.5; }
      .node-soft { fill: #e4f3fa; stroke: #78aeca; stroke-width: 1.5; }
      .node-muted { fill: #f3f6f8; stroke: #a4b0ba; stroke-width: 1.5; stroke-dasharray: 8 6; }
      .core { fill: #26323d; stroke: #26323d; stroke-width: 1.5; }
      .title { font-family: Inter, ui-sans-serif, system-ui, -apple-system, BlinkMacSystemFont, "Segoe UI", sans-serif; fill: #17212b; font-size: 44px; font-weight: 780; letter-spacing: 0; }
      .subtitle { font-family: Inter, ui-sans-serif, system-ui, -apple-system, BlinkMacSystemFont, "Segoe UI", sans-serif; fill: #566371; font-size: 20px; font-weight: 450; letter-spacing: 0; }
      .label { font-family: Inter, ui-sans-serif, system-ui, -apple-system, BlinkMacSystemFont, "Segoe UI", sans-serif; fill: #22313d; font-size: 21px; font-weight: 700; letter-spacing: 0; }
      .label-white { font-family: Inter, ui-sans-serif, system-ui, -apple-system, BlinkMacSystemFont, "Segoe UI", sans-serif; fill: #ffffff; font-size: 22px; font-weight: 760; letter-spacing: 0; }
      .small { font-family: Inter, ui-sans-serif, system-ui, -apple-system, BlinkMacSystemFont, "Segoe UI", sans-serif; fill: #566371; font-size: 15px; font-weight: 520; letter-spacing: 0; }
      .mono { font-family: "SFMono-Regular", Consolas, "Liberation Mono", monospace; fill: #43515d; font-size: 16px; font-weight: 600; letter-spacing: 0; }
      .tag { font-family: "SFMono-Regular", Consolas, "Liberation Mono", monospace; fill: #2f80c1; font-size: 13px; font-weight: 700; letter-spacing: .08em; }
      .footer { font-family: "SFMono-Regular", Consolas, "Liberation Mono", monospace; fill: #6a7783; font-size: 13px; font-weight: 500; letter-spacing: 0; }
      .line { stroke: #34424d; stroke-width: 2.2; fill: none; marker-end: url(#arrow); }
      .line-blue { stroke: #2f80c1; stroke-width: 3; fill: none; marker-end: url(#arrowBlue); }
      .line-gray { stroke: #9aa6af; stroke-width: 2; fill: none; stroke-dasharray: 8 7; marker-end: url(#arrowGray); }
      .band-title { font-family: Inter, ui-sans-serif, system-ui, -apple-system, BlinkMacSystemFont, "Segoe UI", sans-serif; fill: #22313d; font-size: 19px; font-weight: 740; letter-spacing: 0; }
    </style>
  </defs>

  <rect class="bg" x="0" y="0" width="1536" height="1024"/>
  <rect class="panel" x="52" y="52" width="1432" height="920" rx="18"/>

  <text class="title" x="96" y="120">FigForge call flow</text>
  <text class="subtitle" x="96" y="154">Source-grounded planning is separated from credential-owned image generation, with recoverable run state.</text>

  <!-- Top-level group labels -->
  <text class="tag" x="100" y="214">REQUEST</text>
  <text class="tag" x="430" y="214">ORCHESTRATION</text>
  <text class="tag" x="782" y="214">PLANNING</text>
  <text class="tag" x="1118" y="214">GENERATION</text>

  <!-- Main nodes -->
  <rect class="node" x="96" y="248" width="210" height="94" rx="10"/>
  <text class="label" x="201" y="289" text-anchor="middle">User request</text>
  <text class="small" x="201" y="317" text-anchor="middle">prompt, repo, paper, diagram</text>

  <rect class="node-soft" x="378" y="248" width="210" height="94" rx="10"/>
  <text class="label" x="483" y="289" text-anchor="middle">Triage</text>
  <text class="small" x="483" y="317" text-anchor="middle">choose route</text>

  <rect class="core" x="654" y="236" width="250" height="118" rx="12"/>
  <text class="label-white" x="779" y="283" text-anchor="middle">figforge</text>
  <text class="label-white" x="779" y="313" text-anchor="middle">orchestrator</text>
  <text class="small" x="779" y="337" text-anchor="middle" fill="#dce7ef">no inline API calls</text>

  <rect class="node" x="750" y="438" width="238" height="110" rx="10"/>
  <text class="label" x="869" y="477" text-anchor="middle">figforge-plan</text>
  <text class="small" x="869" y="506" text-anchor="middle">evidence ledger</text>
  <text class="small" x="869" y="530" text-anchor="middle">Prompt Package</text>

  <rect class="node-soft" x="1034" y="438" width="238" height="110" rx="10"/>
  <text class="label" x="1153" y="477" text-anchor="middle">Prompt Package</text>
  <text class="mono" x="1153" y="508" text-anchor="middle">prompt_package.md</text>
  <text class="small" x="1153" y="532" text-anchor="middle">source discipline</text>

  <rect class="node" x="1034" y="248" width="238" height="110" rx="10"/>
  <text class="label" x="1153" y="287" text-anchor="middle">figforge-gen</text>
  <text class="small" x="1153" y="316" text-anchor="middle">config preflight</text>
  <text class="small" x="1153" y="340" text-anchor="middle">gpt-image-2 call</text>

  <rect class="node-soft" x="1312" y="254" width="126" height="98" rx="10"/>
  <text class="label" x="1375" y="293" text-anchor="middle">Image</text>
  <text class="small" x="1375" y="321" text-anchor="middle">assets/</text>

  <!-- Main flow -->
  <path class="line-blue" d="M 306 295 L 378 295"/>
  <path class="line-blue" d="M 588 295 L 654 295"/>
  <path class="line-blue" d="M 779 354 C 779 388, 815 404, 850 438"/>
  <path class="line-blue" d="M 988 493 L 1034 493"/>
  <path class="line-blue" d="M 1153 438 C 1153 405, 1153 389, 1153 358"/>
  <path class="line-blue" d="M 1272 303 L 1312 303"/>

  <!-- Optional routes -->
  <path class="line-gray" d="M 484 342 C 500 392, 596 430, 750 493"/>
  <text class="small" x="542" y="414" text-anchor="middle">source material</text>

  <path class="line-gray" d="M 588 268 C 720 184, 930 184, 1034 278"/>
  <text class="small" x="806" y="196" text-anchor="middle">prompt only</text>

  <path class="line-gray" d="M 1272 528 C 1356 568, 1406 598, 1432 642"/>
  <text class="small" x="1356" y="585" text-anchor="middle">package only: stop</text>

  <!-- State band -->
  <rect class="node-soft" x="174" y="676" width="1188" height="146" rx="14"/>
  <text class="band-title" x="214" y="718">Recoverable run state</text>
  <text class="mono" x="214" y="748">.figforge/&lt;run-id&gt;/</text>

  <rect class="node" x="492" y="704" width="210" height="70" rx="8"/>
  <text class="mono" x="597" y="746" text-anchor="middle">prompt_package.md</text>

  <rect class="node" x="736" y="704" width="194" height="70" rx="8"/>
  <text class="mono" x="833" y="746" text-anchor="middle">last_image.json</text>

  <rect class="node" x="964" y="704" width="184" height="70" rx="8"/>
  <text class="mono" x="1056" y="746" text-anchor="middle">revisions.log</text>

  <path class="line" d="M 869 548 C 830 612, 708 648, 597 704"/>
  <path class="line" d="M 1153 358 C 1230 470, 1242 626, 1056 704"/>

  <!-- Revision loop -->
  <rect class="node-muted" x="622" y="856" width="292" height="74" rx="10"/>
  <text class="label" x="768" y="890" text-anchor="middle">User revision</text>
  <text class="small" x="768" y="916" text-anchor="middle">cosmetic, pixel, content, structural</text>

  <path class="line-gray" d="M 914 886 C 1070 874, 1192 728, 1174 548"/>
  <text class="small" x="1124" y="804" text-anchor="middle">cosmetic / pixel</text>

  <path class="line-gray" d="M 650 856 C 560 758, 650 604, 750 514"/>
  <text class="small" x="594" y="704" text-anchor="middle">structural</text>

  <!-- Boundary note -->
  <rect class="node-muted" x="1014" y="136" width="286" height="58" rx="9"/>
  <text class="small" x="1157" y="161" text-anchor="middle">credential boundary</text>
  <text class="small" x="1157" y="184" text-anchor="middle">tokens owned by figforge-gen</text>

  <path class="line-gray" d="M 1157 194 L 1157 248"/>

  <!-- Footer -->
  <line x1="96" y1="950" x2="1440" y2="950" stroke="#d6dde3" stroke-width="1"/>
  <text class="footer" x="96" y="974">Sources: figforge/SKILL.md, figforge-plan/SKILL.md, figforge-gen/SKILL.md, figforge-gen/scripts/figforge_gen.py</text>
</svg>
